<?xml version="1.0" encoding="utf-8"?>
<!-- Generator: Adobe Illustrator 24.3.0, SVG Export Plug-In . SVG Version: 6.00 Build 0)  -->
<svg version="1.1" id="Capa_1" xmlns="http://www.w3.org/2000/svg" xmlns:xlink="http://www.w3.org/1999/xlink" x="0px" y="0px"
	 viewBox="0 0 215.6 197.7" style="enable-background:new 0 0 215.6 197.7;" xml:space="preserve">
<style type="text/css">
	.st0{fill:#FFD569;}
	.st1{fill:#FFCF5E;}
	.st2{fill:#FFFFFF;}
</style>
<symbol  id="New_Symbol" viewBox="-309.9 -282.7 619.8 565.4">
	<polygon class="st0" points="-253.4,-245.2 -279.5,-262.7 -232.7,-262.7 -232.4,-245.2 	"/>
	<polygon class="st0" points="-183.1,-245.7 -209.5,-262.7 -162.7,-262.7 -162.4,-245.2 	"/>
	<g>
		<path class="st0" d="M-134.8-31C-187.9,12.3-176,93-175.3,96.7l19.6-3.9l-9.8,2l9.8-2c-0.2-0.8-18.2-82.6,25.5-118.3L-134.8-31z"
			/>
		<path class="st0" d="M-24.9-74l-19.2,5.6c14.3,49.4,58.7,77.1,93.4,91.6c23,9.6,42.4,27,54.6,48.9l104.4,186.7l-86.6-9
			c-57-5.9-107.3-39.5-134.6-89.8l-49.1-90.3c-20.4-37.6-62.5-52.5-104.8-46.2l3,7.8c34-5.1,70.8,17.7,87.2,47.9l46.1,90.3
			c30.5,56.1,86.6,93.6,150.1,100.2l124.9,13L121.4,62.3C107,36.5,84.1,16,57.1,4.7C26.4-8.1-12.8-32.2-24.9-74z"/>
		<path class="st0" d="M59.4-272.7l-19.8,2.9l11.7,79c3.5,23.4-3.4,46.7-18.7,63.9C-8.8-80.4-77.2-69.2-77.9-69.2l0.7,6
			c3.1-0.1,77.4,2.6,124.6-50.3c19.3-21.7,27.9-50.9,23.6-80.1L59.4-272.7z"/>
		<path class="st0" d="M-84-182.2c-63.7,2.5-103.5,21.3-125.8,31.3c-24.8,11.1-33.8,22-33.9,22.1l0.1-0.1l-15.8-12.3
			c1.6-2.1,40.3-45.9,175.4-50.1V-182.2z"/>
		<path class="st0" d="M283.5,152.6l-6.6,0.2c-48.8,1.6-82.4-9.5-105.7-34.9c-20.7-22.6-33.7-56.2-43.5-112.4
			c-6.3-36.5-29.6-61.7-69.1-74.8C27.8-79.5-1.7-78.2-2-78.2l-1-20c1.3-0.1,33-1.5,67.2,9.7c46.8,15.3,75.5,46.6,83.1,90.5
			c9.1,52.2,20.6,82.8,38.5,102.3c18.3,19.9,44.3,28.9,83.7,28.5l15.5-40.7L248,71l-12.6,5.8c-23.8,11-52.4,0.9-63.9-22.5
			c-10.8-22.2-14.2-51-10-85.7c4.9-40.3-5.3-75.2-29.4-100.8C102-164.4,52.1-187.4-12-184.4v-9c5.6-0.3,11.1-0.4,16.5-0.4
			c61.9,0,110.8,14.4,142.2,47.9C174.7-116.3,187-74.7,181.5-29c-3.7,30.8-1,55.9,8.1,74.6c6.7,13.7,23.5,19.6,37.5,13.2L249,48.5
			l60.9,34.8L283.5,152.6z"/>
		<path class="st0" d="M193.1,215.4l-30.7,0c-43.7,0-83.9-18.1-118-45.4l13.9-1.5c29.8,20,68.1,26.9,104.1,26.8l30.7,0L193.1,215.4z
			"/>
		<path class="st0" d="M166.1,165.4l-13.8,0c-43.7,0-83.9-18.1-118-45.4l13.9-1.5c29.8,20,68.1,26.9,104.1,26.8l8.2,0
			C160.5,152,162.7,159.2,166.1,165.4z"/>
		<path class="st0" d="M133.5,115.2C93.2,112.9,56.1,95.5,24.3,70l13.9-1.5C63.8,85.7,95.6,93.2,126.9,95
			C127.2,101.8,129.7,109.1,133.5,115.2z"/>
		<path class="st0" d="M-202,153.3l2.3-9.6c1.1-4.6,4.6-8.1,9.2-9.3l16.6-4.1l-6.7,12c-1.5,2.6-3.8,4.6-6.6,5.6L-202,153.3z"/>
		<path class="st0" d="M-183.1-245.7h20.7c7.8,45.1-0.4,70.8-9.1,91.5c-9.7,23.1-23.7,39-23.7,39l-6.4-4.8c0,0,11.8-16.4,17.9-39.2
			C-176.4-187.2-174.7-215.4-183.1-245.7z"/>
		<path class="st0" d="M-102.5,155l-79.5,32l9.7,75.5l-21.1,0.8l-3.1-4c-1.5-1.9-40.3-47.9-66.5-118.4
			c-15.4-41.5-24.3-82.9-26.3-123c-2.5-50.4,5.7-98.8,24.6-143.9c20.7-49.6,24.3-89.9,10.8-119.6h21.5c12,33.8,7.4,76.6-13.8,127.4
			c-40.1,95.9-21.2,189.8,1.8,251.7c17,46,38.8,81.7,51.1,100l-11.4-58.8l84.5-34l5.7-34.1c-44.4,7.3-73.9-9.5-84.3-15.1l-33.1,7
			l-2.7-7.4l35-16l4.3-1.1l3.7,2.5c1.3,0.9,32.6,21.2,87,7.6l14.8-3.7L-102.5,155z"/>
		<path class="st0" d="M-42.8-252.7l3.4,9.7c1.8,5,6.3,10.2,10.6,13.3c14.4,10.5,32.7,11.5,38,11.9v10.1c-4.1,0.5-20,0.7-34.9-3.1
			c-14.6-3.8-26.3-12.7-31.5-26.8l-12.9-35.1H59v20H-42.8z"/>
	</g>
	<polygon class="st0" points="305.1,-282.7 -309.9,-282.7 -296.9,-262.7 296.1,-262.7 	"/>
	<polygon class="st1" points="-237.4,26.6 -225.9,13.7 -218,50.7 -232.4,33.5 -239.9,40.1 -245.5,30.4 -253.5,45.9 -244.8,16.2 	"/>
	<polygon class="st1" points="-236.9,3.2 -247,-14.4 -261.5,13.7 -245.7,-40.2 -232.3,-21.3 -211.4,-44.8 -197.1,22.3 -223.1,-8.8 	
		"/>
	<polygon class="st1" points="-240.7,-63.4 -225.3,-82.2 -215.1,-66.3 -230.7,-48.4 	"/>
	<path class="st0" d="M308.8,90.7l-7.1,3.2c-22.5,10.2-47.5,10.1-71.4,4l6.8-4c20,3.4,41.3-1.9,59.9-10.3l4.3-1.9
		C302.8,85.1,305.6,88.3,308.8,90.7z"/>
</symbol>
<g>
	<g>
		<path class="st2" d="M1057.2,860.3c0,7.5-6,13.4-13.7,13.4s-13.6-5.9-13.6-13.3c0-7.4,5.9-13.3,13.7-13.3
			C1051.4,847,1057.2,852.8,1057.2,860.3z M1055,860.3c0-6.3-4.8-11.2-11.3-11.2c-6.6,0-11.5,4.9-11.5,11.3
			c0,6.3,4.9,11.2,11.4,11.2C1050,871.6,1055,866.6,1055,860.3z M1047.1,862.4l2.9,4.4h-2.9l-2.6-3.9h-0.4h-2.6v3.9h-2.9v-12.9h5.5
			c3.5,0,5.5,1.8,5.5,4.5C1049.8,860.3,1048.8,861.7,1047.1,862.4z M1044.1,860.7c1.9,0,2.9-0.8,2.9-2.3c0-1.4-1.1-2.3-2.9-2.3h-2.5
			v4.5H1044.1z"/>
	</g>
	<polygon class="st2" points="657.3,847 608.2,909.6 582.8,847 558,847 536.4,955.1 564.5,955.1 575.9,898.1 595.5,944.4 
		608.9,944.4 644.9,898.1 633.8,955.1 662,955.1 683.3,847 	"/>
	<path class="st2" d="M992.3,847l-11.6,58c-3.6,17.8-10.7,24.9-23.2,24.9c-11.3,0-17.5-5.3-17.5-16.6c0-2.6,0.3-5.3,0.9-8.3l11.6-58
		h-29.8L911,905.5c-0.8,3.9-1.2,7.7-1.2,11.1c0,23.4,16.6,38,44.1,38c31,0,49.6-16.3,55.9-47.8l11.9-59.8H992.3z"/>
	<polygon class="st2" points="477.6,847 408.2,955.1 440.5,955.1 487.1,876.5 495.6,917.5 477.5,917.5 462.6,943.1 500.9,943.1 
		503.3,955.1 533.8,955.1 507.7,847 	"/>
	<path class="st2" d="M906.3,881.5c0-21.6-15.9-34.4-43.5-34.4h-46.2L795,955.1h30.6l16.8-84h16.1c10.5,0,17,4.2,17,13.3
		c0,11.9-7.9,18.4-21.3,18.4h-2.7l-4.7,23.6h0.1l16.1,28.7h32l-18.4-32.4C895.2,916.2,906.3,901.4,906.3,881.5z"/>
	<polygon class="st2" points="735.7,847 666.4,955.1 698.7,955.1 745.3,876.5 753.8,917.5 735.7,917.5 720.8,943.1 759.1,943.1 
		761.5,955.1 791.9,955.1 765.9,847 	"/>
</g>
<g>
	<g>
		<path class="st1" d="M481,973.2c0.4,0,0.5,0.2,0.5,0.5l-3.5,22.3h11.7c0.3,0,0.5,0.2,0.5,0.5l-0.6,3.8c0,0.4-0.2,0.5-0.6,0.5
			h-16.8c-0.3,0-0.5-0.2-0.5-0.6l4.2-26.6c0-0.4,0.2-0.5,0.6-0.5H481z"/>
		<path class="st1" d="M514.3,981.9c2,1.5,2,4,1.3,9c-0.7,4.3-1.4,6.6-3.1,8.2c-1.7,1.6-3.8,2-7.7,2c-3.7,0-6.1-0.7-7-2
			c-1-1.4-1.1-4.1-0.5-8.2c0.6-4.1,1.7-6.8,3.1-8.2c1.4-1.4,4-2,7.7-2C511.2,980.6,513,981,514.3,981.9z M504,986.3
			c-0.6,0.7-1,2.2-1.4,4.5c-0.4,2.3-0.4,3.8,0,4.5c0.4,0.8,1.3,1.1,2.9,1.1s2.7-0.4,3.3-1.1c0.6-0.8,1.1-2.3,1.4-4.5
			c0.4-2.3,0.4-3.7,0-4.5c-0.4-0.8-1.4-1.1-3-1.1S504.6,985.6,504,986.3z"/>
		<path class="st1" d="M541.6,981.3c0.5,0.1,0.7,0.4,0.6,0.9l-2.9,18.2c-0.5,3-1,4.5-2.4,5.9c-1.4,1.4-3.7,1.9-7.6,1.9
			c-2.5,0-4.7-0.2-6.6-0.5c-0.3,0-0.5-0.3-0.4-0.6l0.4-2.7c0.1-0.4,0.3-0.5,0.6-0.5h6.2c3.1,0,4-0.7,4.4-3.1l0-0.2
			c-1.4,0.3-2.9,0.4-4.4,0.4c-3.3,0-5.3-0.7-6.2-2.1c-0.9-1.4-1-4.2-0.4-8.3c1.5-8.1,3.2-9.7,10.9-9.9
			C536.6,980.6,539.2,980.9,541.6,981.3z M536.5,985.2h-3.5c-1.7,0-2.8,0.4-3.3,1.1c-0.5,0.7-1,2.2-1.4,4.5c-0.4,2.3-0.4,3.9,0,4.6
			c0.4,0.7,1.5,1,3.2,1c1.3,0,2.4-0.1,3.3-0.2L536.5,985.2z"/>
		<path class="st1" d="M555.7,980.8c0.4,0,0.5,0.2,0.4,0.5l-3,18.9c-0.1,0.4-0.3,0.6-0.6,0.6h-4.2c-0.3,0-0.5-0.2-0.5-0.6l3-18.9
			c0-0.4,0.2-0.5,0.6-0.5H555.7z M560.4,972.5c0.2,0,0.3,0.1,0.3,0.4v0.2c0,0.2-0.1,0.3-0.3,0.5l-7.1,5.2c-0.1,0.1-0.3,0.1-0.5,0
			l-1.4-0.9c-0.1-0.1-0.1-0.3,0-0.5l3.4-4.7c0.1-0.1,0.3-0.2,0.5-0.2H560.4z"/>
		<path class="st1" d="M578.1,981.1c0.4,0.1,0.5,0.3,0.5,0.6l-0.4,2.7c-0.1,0.4-0.3,0.6-0.7,0.6H571c-1.4,0-2.2,0.4-2.3,1.3l0,0.4
			c-0.1,0.7,0.4,1.2,1.4,1.6l4.3,1.6c2.7,1,3.3,2.7,2.9,5.4l-0.1,0.6c-0.6,3.9-3.5,5.2-8.5,5.2c-2.7,0-5.1-0.1-7.3-0.4
			c-0.5,0-0.6-0.1-0.5-0.5l0.5-2.9c0-0.4,0.3-0.5,0.6-0.5h7.4c1.9,0,2.5-0.3,2.7-1.2l0-0.3c0.1-0.7-0.3-1.1-1.7-1.7l-4.1-1.6
			c-2.3-0.8-3.3-2.7-2.8-5.4l0.1-0.7c0.6-3.7,3.6-5.2,9-5.2C574.5,980.6,576.4,980.8,578.1,981.1z"/>
		<path class="st1" d="M594,975.3c0.4-0.1,0.6,0.1,0.5,0.5l-0.8,5.1h3.3c0.4,0,0.6,0.2,0.5,0.5l-0.5,2.9c-0.1,0.4-0.3,0.5-0.7,0.5
			H593l-1.5,9.8c-0.3,1.5,0.2,1.8,1.8,1.8h1.5c0.4,0,0.6,0.2,0.5,0.5l-0.5,3c-0.1,0.4-0.3,0.6-0.7,0.7c-1.1,0.2-2.1,0.3-3.1,0.3
			c-1.6,0-3,0-4-0.6c-1-0.7-1.5-1.7-1.1-4l1.8-11.6h-2.1c-0.4,0-0.6-0.2-0.5-0.5l0.5-2.9c0-0.4,0.3-0.5,0.7-0.5h2.1l0.6-4
			c0.1-0.3,0.3-0.5,0.6-0.6L594,975.3z"/>
		<path class="st1" d="M609.7,980.8c0.4,0,0.5,0.2,0.4,0.5l-3,18.9c-0.1,0.4-0.3,0.6-0.6,0.6h-4.2c-0.3,0-0.5-0.2-0.5-0.6l3-18.9
			c0-0.4,0.2-0.5,0.6-0.5H609.7z M611.6,975.2c-0.3,1.8-1.6,2.9-3.6,2.9c-2,0-3-1.1-2.7-2.9c0.3-1.8,1.6-2.9,3.6-2.9
			C611,972.4,611.9,973.4,611.6,975.2z"/>
		<path class="st1" d="M633.2,981.1c0.4,0.1,0.5,0.3,0.5,0.7l-0.5,2.8c-0.1,0.4-0.3,0.6-0.7,0.6h-5.8c-1.6,0-2.7,0.4-3.3,1.1
			c-0.6,0.7-1,2.2-1.4,4.5c-0.4,2.3-0.4,3.8,0,4.5c0.4,0.8,1.3,1.1,2.9,1.1h5.8c0.4,0,0.6,0.2,0.5,0.5l-0.5,2.9
			c-0.1,0.4-0.3,0.6-0.7,0.7c-1.5,0.3-3.5,0.5-5.9,0.5c-3.2,0-5-0.4-6.3-1.2c-1.9-1.5-1.9-4-1.2-9c0.6-4.2,1.6-6.9,3-8.2
			c1.4-1.3,4-2,7.7-2C629.7,980.6,631.7,980.8,633.2,981.1z"/>
		<path class="st1" d="M655.4,982.1c1.1,1,1.4,2.5,1.1,4.7l-2,12.4c-0.1,0.5-0.4,0.9-1,1.1c-2.3,0.5-5.1,0.8-8.3,0.8
			c-3,0-4.5-0.1-5.9-1c-1.4-0.9-1.8-2.5-1.3-5.2c0.4-2.3,1.2-3.8,2.5-4.7c1.3-0.8,3.2-1.2,5.8-1.2h4.5l0.2-1.3
			c0.3-1.7-0.6-2.5-3-2.5h-6.4c-0.4,0-0.5-0.2-0.4-0.6l0.5-2.9c0-0.3,0.3-0.5,0.6-0.6c1.9-0.4,4.1-0.5,6.6-0.5
			C652.1,980.6,654.3,981.1,655.4,982.1z M650.3,992.4h-4.2c-1.8,0-2.6,0.6-2.8,2.1c-0.3,1.7,0.4,2.2,2.7,2.2c1.5,0,2.7-0.1,3.7-0.4
			L650.3,992.4z"/>
		<path class="st1" d="M694.1,981.3c0.5,0.1,0.7,0.4,0.6,0.9l-4,25.3c0,0.4-0.3,0.5-0.6,0.5h-4.2c-0.4,0-0.5-0.2-0.5-0.5l1.1-6.7
			c-1.3,0.1-2.8,0.2-4.4,0.2c-3.3,0-5.3-0.7-6.2-2.1c-0.9-1.4-1-4.2-0.4-8.3c1.5-8.1,3.2-9.7,10.9-9.9
			C688.7,980.6,691.3,980.9,694.1,981.3z M688.9,985.2h-3.5c-1.7,0-2.8,0.4-3.3,1.1c-0.5,0.7-1,2.2-1.4,4.5c-0.4,2.3-0.4,3.9,0,4.6
			c0.4,0.7,1.5,1,3.2,1c1.3,0,2.4-0.1,3.3-0.2L688.9,985.2z"/>
		<path class="st1" d="M720.5,980.8c0.4,0,0.5,0.2,0.4,0.5l-2.9,18.5c0,0.3-0.3,0.5-0.6,0.6c-2.2,0.4-5.1,0.6-8.7,0.6
			c-6.9,0-8.4-1.3-7.3-8.6l1.8-11.1c0.1-0.4,0.3-0.5,0.7-0.5h4.2c0.3,0,0.5,0.2,0.4,0.5l-1.5,9.7c-0.3,2.1-0.4,3.3-0.3,4.1
			c0.4,1.3,1.2,1.3,3.3,1.3h3.3l2.4-15.1c0.1-0.4,0.3-0.5,0.6-0.5H720.5z"/>
		<path class="st1" d="M744.6,982.6c1,1.3,1.1,4,0.5,8l-0.2,1.1c-0.1,0.7-0.4,1-1.3,1h-11.2c-0.2,1.6-0.1,2.6,0.4,3.1
			c0.5,0.5,1.5,0.7,3.1,0.7h6.3c0.4,0,0.5,0.2,0.5,0.5l-0.5,3c-0.1,0.3-0.3,0.5-0.6,0.6c-1.7,0.3-4,0.5-6.9,0.5
			c-7.3,0-8.6-2-7.4-10.2c0.6-4.1,1.7-6.8,3.1-8.2c1.4-1.4,3.9-2,7.6-2C741.4,980.6,743.7,981.3,744.6,982.6z M732.9,989.2h7.1
			c0.5-3.1-0.1-4-2.8-4C734.4,985.2,733.4,986.1,732.9,989.2z"/>
		<path class="st1" d="M783,980.8c0.4,0,0.5,0.2,0.4,0.5l-2.9,18.5c0,0.3-0.3,0.5-0.6,0.6c-2.2,0.4-5.1,0.6-8.7,0.6
			c-6.9,0-8.4-1.3-7.3-8.6l1.8-11.1c0.1-0.4,0.3-0.5,0.7-0.5h4.2c0.3,0,0.5,0.2,0.4,0.5l-1.5,9.7c-0.3,2.1-0.4,3.3-0.3,4.1
			c0.4,1.3,1.2,1.3,3.3,1.3h3.3l2.4-15.1c0.1-0.4,0.3-0.5,0.6-0.5H783z"/>
		<path class="st1" d="M808.4,989.2l-1.8,11.1c0,0.4-0.3,0.6-0.6,0.6h-4.2c-0.4,0-0.5-0.2-0.4-0.6l1.5-9.7c0.8-5.1,0.3-5.4-3-5.4
			h-3.2l-2.4,15.1c-0.1,0.4-0.3,0.6-0.6,0.6h-4.3c-0.4,0-0.5-0.2-0.4-0.6l2.9-18.5c0-0.3,0.3-0.5,0.6-0.5c1.9-0.4,4.8-0.6,8.7-0.6
			C808,980.6,809.5,981.9,808.4,989.2z"/>
		<path class="st1" d="M833.2,982.6c1,1.3,1.1,4,0.5,8l-0.2,1.1c-0.1,0.7-0.4,1-1.3,1H821c-0.2,1.6-0.1,2.6,0.4,3.1
			c0.5,0.5,1.5,0.7,3.1,0.7h6.3c0.4,0,0.5,0.2,0.5,0.5l-0.5,3c-0.1,0.3-0.3,0.5-0.6,0.6c-1.7,0.3-4,0.5-6.9,0.5
			c-7.3,0-8.6-2-7.4-10.2c0.6-4.1,1.7-6.8,3.1-8.2c1.4-1.4,3.9-2,7.6-2C830.1,980.6,832.3,981.3,833.2,982.6z M821.5,989.2h7.1
			c0.5-3.1-0.1-4-2.8-4C823.1,985.2,822.1,986.1,821.5,989.2z"/>
		<path class="st1" d="M868.6,982.1c1.1,1,1.4,2.5,1.1,4.7l-2,12.4c-0.1,0.5-0.4,0.9-1,1.1c-2.3,0.5-5.1,0.8-8.3,0.8
			c-3,0-4.5-0.1-5.9-1c-1.4-0.9-1.8-2.5-1.3-5.2c0.4-2.3,1.2-3.8,2.5-4.7c1.3-0.8,3.2-1.2,5.8-1.2h4.5l0.2-1.3
			c0.3-1.7-0.6-2.5-3-2.5h-6.4c-0.4,0-0.5-0.2-0.4-0.6l0.5-2.9c0-0.3,0.3-0.5,0.6-0.6c1.9-0.4,4.1-0.5,6.6-0.5
			C865.3,980.6,867.6,981.1,868.6,982.1z M863.5,992.4h-4.2c-1.8,0-2.6,0.6-2.8,2.1c-0.3,1.7,0.4,2.2,2.7,2.2c1.5,0,2.7-0.1,3.7-0.4
			L863.5,992.4z"/>
		<path class="st1" d="M885.1,973.2c0.4,0,0.5,0.2,0.5,0.5l-4.2,26.6c-0.1,0.4-0.3,0.6-0.6,0.6h-4.2c-0.3,0-0.5-0.2-0.5-0.6
			l4.2-26.6c0-0.4,0.3-0.5,0.6-0.5H885.1z"/>
		<path class="st1" d="M924.3,974.9c1.3,1.3,1.7,3.7,1.1,7.2c-0.5,3.5-1.6,5.9-3.3,7c-1.6,1.1-4.5,1.7-8.6,1.7h-4.4l-1.5,9.5
			c0,0.4-0.3,0.6-0.6,0.6h-4.5c-0.4,0-0.5-0.1-0.5-0.6l4.2-26.5c0-0.3,0.3-0.5,0.6-0.5c3-0.3,6.2-0.4,9.6-0.4
			C920.3,972.9,923,973.6,924.3,974.9z M911.1,977.8l-1.4,8.7h3.9c2.2,0,3.7-0.3,4.5-0.8c0.8-0.5,1.3-1.7,1.6-3.5
			c0.3-1.8,0.1-2.9-0.5-3.5c-0.6-0.6-2-0.9-4.2-0.9H911.1z"/>
		<path class="st1" d="M948.1,982.6c1,1.3,1.1,4,0.5,8l-0.2,1.1c-0.1,0.7-0.4,1-1.3,1h-11.2c-0.2,1.6-0.1,2.6,0.4,3.1
			c0.5,0.5,1.5,0.7,3.1,0.7h6.3c0.4,0,0.5,0.2,0.5,0.5l-0.5,3c-0.1,0.3-0.3,0.5-0.6,0.6c-1.7,0.3-4,0.5-6.9,0.5
			c-7.3,0-8.6-2-7.4-10.2c0.6-4.1,1.7-6.8,3.1-8.2c1.4-1.4,3.9-2,7.6-2C945,980.6,947.2,981.3,948.1,982.6z M936.4,989.2h7.1
			c0.5-3.1-0.1-4-2.8-4C938,985.2,937,986.1,936.4,989.2z"/>
		<path class="st1" d="M968.9,981c0.4,0.1,0.5,0.4,0.5,0.7l-0.5,2.9c-0.1,0.4-0.3,0.5-0.7,0.5h-3.4c-1.9,0-2.5,0.4-2.8,1.8
			l-2.1,13.3c0,0.4-0.2,0.6-0.6,0.6h-4.3c-0.4,0-0.5-0.2-0.4-0.6l2.3-14.6c0.3-2.1,1.3-3.6,2.7-4.2c1.4-0.7,2.7-0.8,4.5-0.8
			C966.2,980.6,967.8,980.8,968.9,981z"/>
		<path class="st1" d="M993.4,980.8c0.4,0,0.5,0.2,0.4,0.5l-2.9,18.5c0,0.3-0.3,0.5-0.6,0.6c-2.2,0.4-5.1,0.6-8.7,0.6
			c-6.9,0-8.4-1.3-7.3-8.6l1.8-11.1c0.1-0.4,0.3-0.5,0.7-0.5h4.2c0.3,0,0.5,0.2,0.4,0.5l-1.5,9.7c-0.3,2.1-0.4,3.3-0.3,4.1
			c0.4,1.3,1.2,1.3,3.3,1.3h3.3l2.4-15.1c0.1-0.4,0.3-0.5,0.6-0.5H993.4z M991.5,972.5c0.2,0,0.3,0.1,0.3,0.4v0.2
			c0,0.2-0.1,0.3-0.3,0.5l-7.1,5.2c-0.1,0.1-0.3,0.1-0.5,0l-1.4-0.9c-0.1-0.1-0.1-0.3,0-0.5l3.3-4.7c0.1-0.1,0.3-0.2,0.5-0.2H991.5z
			"/>
	</g>
</g>
<use xlink:href="#New_Symbol"  width="619.8" height="565.4" id="XMLID_1_" x="-309.9" y="-282.7" transform="matrix(0.3485 0 0 -0.3497 108 98.8677)" style="overflow:visible;"/>
</svg>
